<svg width="200" height="200" viewBox="0 0 200 200" fill="none" xmlns="http://www.w3.org/2000/svg">
<path opacity="0.5" d="M108.333 16.6667H91.6667C75.9532 16.6667 68.0964 16.6667 63.2149 21.5482C58.3333 26.4297 58.3333 34.2865 58.3333 50V66.6667H141.667V50C141.667 34.2865 141.667 26.4297 136.785 21.5482C131.903 16.6667 124.047 16.6667 108.333 16.6667Z" fill="#1C274C"/>
<path fill-rule="evenodd" clip-rule="evenodd" d="M83 61H116.333C139.903 61 151.688 61 159.011 68.3223C166.333 75.6447 166.333 87.4298 166.333 111V119.798C166.333 139.845 166.333 149.868 161.355 157.923C156.377 165.978 147.412 170.461 129.481 179.426C114.851 186.742 107.536 190.399 99.6667 190.399C91.7975 190.399 84.4825 186.742 69.8524 179.426C51.9219 170.461 42.9566 165.978 37.9783 157.923C33 149.868 33 139.845 33 119.798V111C33 87.4298 33 75.6447 40.3223 68.3223C47.6447 61 59.4298 61 83 61Z" fill="#1E1E1E"/>
<path d="M50.7419 118V97.56H57.9659L62.1659 108.34H62.7259L66.8979 97.56H74.2619V118H69.1099V100.556L69.9219 100.612L64.6579 113.884H59.9259L54.6339 100.612L55.5019 100.556V118H50.7419ZM85.4418 118.56C84.1351 118.56 82.9778 118.336 81.9698 117.888C80.9618 117.44 80.1125 116.833 79.4218 116.068C78.7311 115.303 78.1991 114.444 77.8258 113.492C77.4711 112.54 77.2938 111.56 77.2938 110.552V109.992C77.2938 108.947 77.4711 107.948 77.8258 106.996C78.1991 106.025 78.7218 105.167 79.3938 104.42C80.0845 103.673 80.9245 103.085 81.9138 102.656C82.9031 102.208 84.0231 101.984 85.2738 101.984C86.9351 101.984 88.3445 102.357 89.5018 103.104C90.6591 103.851 91.5458 104.84 92.1618 106.072C92.7778 107.285 93.0858 108.611 93.0858 110.048V111.672H79.4218V108.928H90.1458L88.3818 110.16C88.3818 109.283 88.2605 108.545 88.0178 107.948C87.7938 107.332 87.4485 106.865 86.9818 106.548C86.5338 106.231 85.9645 106.072 85.2738 106.072C84.6018 106.072 84.0138 106.231 83.5098 106.548C83.0245 106.847 82.6511 107.313 82.3898 107.948C82.1285 108.564 81.9978 109.348 81.9978 110.3C81.9978 111.159 82.1191 111.905 82.3618 112.54C82.6045 113.156 82.9778 113.632 83.4818 113.968C83.9858 114.304 84.6391 114.472 85.4418 114.472C86.1511 114.472 86.7298 114.351 87.1778 114.108C87.6445 113.865 87.9711 113.539 88.1578 113.128H92.8058C92.5818 114.173 92.1338 115.107 91.4618 115.928C90.8085 116.749 89.9685 117.393 88.9418 117.86C87.9338 118.327 86.7671 118.56 85.4418 118.56ZM95.9958 118V97.56H101.092V118H95.9958ZM94.2598 101.256V97.56H101.092V101.256H94.2598ZM104.85 118V97.56H109.946V109.208H109.274C109.274 107.64 109.47 106.324 109.862 105.26C110.254 104.196 110.823 103.393 111.57 102.852C112.335 102.311 113.278 102.04 114.398 102.04H114.622C116.302 102.04 117.581 102.647 118.458 103.86C119.354 105.073 119.802 106.856 119.802 109.208V118H114.706V109.012C114.706 108.303 114.491 107.724 114.062 107.276C113.633 106.809 113.063 106.576 112.354 106.576C111.645 106.576 111.066 106.809 110.618 107.276C110.17 107.724 109.946 108.321 109.946 109.068V118H104.85ZM130.925 118.56C129.562 118.56 128.349 118.355 127.285 117.944C126.221 117.533 125.316 116.964 124.569 116.236C123.841 115.508 123.281 114.668 122.889 113.716C122.516 112.764 122.329 111.747 122.329 110.664V109.992C122.329 108.872 122.525 107.827 122.917 106.856C123.328 105.885 123.906 105.036 124.653 104.308C125.4 103.58 126.305 103.011 127.369 102.6C128.433 102.189 129.618 101.984 130.925 101.984C132.25 101.984 133.436 102.189 134.481 102.6C135.545 103.011 136.45 103.58 137.197 104.308C137.944 105.036 138.513 105.885 138.905 106.856C139.316 107.827 139.521 108.872 139.521 109.992V110.664C139.521 111.747 139.325 112.764 138.933 113.716C138.56 114.668 138 115.508 137.253 116.236C136.525 116.964 135.629 117.533 134.565 117.944C133.501 118.355 132.288 118.56 130.925 118.56ZM130.925 114.304C131.709 114.304 132.353 114.136 132.857 113.8C133.38 113.464 133.772 112.997 134.033 112.4C134.294 111.784 134.425 111.093 134.425 110.328C134.425 109.525 134.285 108.825 134.005 108.228C133.744 107.612 133.352 107.127 132.829 106.772C132.306 106.417 131.672 106.24 130.925 106.24C130.178 106.24 129.544 106.417 129.021 106.772C128.498 107.127 128.097 107.612 127.817 108.228C127.556 108.825 127.425 109.525 127.425 110.328C127.425 111.093 127.556 111.784 127.817 112.4C128.078 112.997 128.47 113.464 128.993 113.8C129.516 114.136 130.16 114.304 130.925 114.304ZM142.311 118V102.544H146.343V109.264H146.287C146.287 107.099 146.735 105.4 147.631 104.168C148.546 102.936 149.852 102.32 151.551 102.32H152.167V106.688H150.991C149.852 106.688 148.966 106.996 148.331 107.612C147.715 108.228 147.407 109.115 147.407 110.272V118H142.311ZM72.3179 153.504C70.0779 153.504 68.3139 153.047 67.0259 152.132C65.7379 151.199 65.0472 149.892 64.9539 148.212H69.4339C69.5086 148.679 69.7979 149.08 70.3019 149.416C70.8059 149.752 71.5152 149.92 72.4299 149.92C73.0832 149.92 73.6432 149.827 74.1099 149.64C74.5952 149.435 74.8379 149.108 74.8379 148.66C74.8379 148.268 74.6512 147.951 74.2779 147.708C73.9046 147.447 73.2232 147.269 72.2339 147.176L71.1699 147.064C69.1912 146.859 67.7352 146.317 66.8019 145.44C65.8686 144.563 65.4019 143.461 65.4019 142.136C65.4019 140.997 65.6819 140.064 66.2419 139.336C66.8019 138.589 67.5766 138.029 68.5659 137.656C69.5552 137.283 70.6846 137.096 71.9539 137.096C74.0259 137.096 75.6966 137.553 76.9659 138.468C78.2352 139.364 78.9072 140.661 78.9819 142.36H74.5019C74.4272 141.893 74.1752 141.501 73.7459 141.184C73.3166 140.848 72.7006 140.68 71.8979 140.68C71.3192 140.68 70.8432 140.783 70.4699 140.988C70.1152 141.193 69.9379 141.483 69.9379 141.856C69.9379 142.248 70.1059 142.537 70.4419 142.724C70.7966 142.911 71.3566 143.051 72.1219 143.144L73.1859 143.256C75.1646 143.461 76.6859 144.012 77.7499 144.908C78.8326 145.785 79.3739 146.943 79.3739 148.38C79.3739 149.444 79.0846 150.359 78.5059 151.124C77.9459 151.889 77.1339 152.477 76.0699 152.888C75.0246 153.299 73.7739 153.504 72.3179 153.504ZM89.1605 153.56C87.8539 153.56 86.6965 153.336 85.6885 152.888C84.6805 152.44 83.8312 151.833 83.1405 151.068C82.4499 150.303 81.9179 149.444 81.5445 148.492C81.1899 147.54 81.0125 146.56 81.0125 145.552V144.992C81.0125 143.947 81.1899 142.948 81.5445 141.996C81.9179 141.025 82.4405 140.167 83.1125 139.42C83.8032 138.673 84.6432 138.085 85.6325 137.656C86.6219 137.208 87.7419 136.984 88.9925 136.984C90.6539 136.984 92.0632 137.357 93.2205 138.104C94.3779 138.851 95.2645 139.84 95.8805 141.072C96.4965 142.285 96.8045 143.611 96.8045 145.048V146.672H83.1405V143.928H93.8645L92.1005 145.16C92.1005 144.283 91.9792 143.545 91.7365 142.948C91.5125 142.332 91.1672 141.865 90.7005 141.548C90.2525 141.231 89.6832 141.072 88.9925 141.072C88.3205 141.072 87.7325 141.231 87.2285 141.548C86.7432 141.847 86.3699 142.313 86.1085 142.948C85.8472 143.564 85.7165 144.348 85.7165 145.3C85.7165 146.159 85.8379 146.905 86.0805 147.54C86.3232 148.156 86.6965 148.632 87.2005 148.968C87.7045 149.304 88.3579 149.472 89.1605 149.472C89.8699 149.472 90.4485 149.351 90.8965 149.108C91.3632 148.865 91.6899 148.539 91.8765 148.128H96.5245C96.3005 149.173 95.8525 150.107 95.1805 150.928C94.5272 151.749 93.6872 152.393 92.6605 152.86C91.6525 153.327 90.4859 153.56 89.1605 153.56ZM86.5005 135.864L89.0205 129.928H94.2285L90.9805 135.864H86.5005ZM99.4906 153V137.544H103.523V144.264H103.467C103.467 142.099 103.915 140.4 104.811 139.168C105.725 137.936 107.032 137.32 108.731 137.32H109.347V141.688H108.171C107.032 141.688 106.145 141.996 105.511 142.612C104.895 143.228 104.587 144.115 104.587 145.272V153H99.4906ZM112.086 153V137.544H117.182V153H112.086ZM110.126 141.24V137.544H117.182V141.24H110.126ZM114.186 136.312C113.252 136.312 112.562 136.079 112.114 135.612C111.684 135.127 111.47 134.511 111.47 133.764C111.47 133.017 111.684 132.411 112.114 131.944C112.562 131.459 113.243 131.216 114.158 131.216C115.091 131.216 115.772 131.459 116.202 131.944C116.631 132.411 116.846 133.017 116.846 133.764C116.846 134.511 116.631 135.127 116.202 135.612C115.772 136.079 115.1 136.312 114.186 136.312ZM128.18 153.56C126.873 153.56 125.716 153.336 124.708 152.888C123.7 152.44 122.851 151.833 122.16 151.068C121.469 150.303 120.937 149.444 120.564 148.492C120.209 147.54 120.032 146.56 120.032 145.552V144.992C120.032 143.947 120.209 142.948 120.564 141.996C120.937 141.025 121.46 140.167 122.132 139.42C122.823 138.673 123.663 138.085 124.652 137.656C125.641 137.208 126.761 136.984 128.012 136.984C129.673 136.984 131.083 137.357 132.24 138.104C133.397 138.851 134.284 139.84 134.9 141.072C135.516 142.285 135.824 143.611 135.824 145.048V146.672H122.16V143.928H132.884L131.12 145.16C131.12 144.283 130.999 143.545 130.756 142.948C130.532 142.332 130.187 141.865 129.72 141.548C129.272 141.231 128.703 141.072 128.012 141.072C127.34 141.072 126.752 141.231 126.248 141.548C125.763 141.847 125.389 142.313 125.128 142.948C124.867 143.564 124.736 144.348 124.736 145.3C124.736 146.159 124.857 146.905 125.1 147.54C125.343 148.156 125.716 148.632 126.22 148.968C126.724 149.304 127.377 149.472 128.18 149.472C128.889 149.472 129.468 149.351 129.916 149.108C130.383 148.865 130.709 148.539 130.896 148.128H135.544C135.32 149.173 134.872 150.107 134.2 150.928C133.547 151.749 132.707 152.393 131.68 152.86C130.672 153.327 129.505 153.56 128.18 153.56Z" fill="white"/>
</svg>
