<svg width="200" height="200" viewBox="0 0 200 200" fill="none" xmlns="http://www.w3.org/2000/svg">
<path opacity="0.5" d="M106.624 16.6667H89.9575C74.2442 16.6667 66.3874 16.6667 61.5059 21.5482C56.6243 26.4297 56.6243 34.2865 56.6243 50V66.6667V79.1667H139.957V66.6667V50C139.957 34.2865 139.957 26.4297 135.076 21.5482C130.194 16.6667 122.337 16.6667 106.624 16.6667Z" fill="#1C274C"/>
<path d="M87.6382 54.6513C95.7053 50.4795 105.295 50.4795 113.362 54.6513L155.943 76.6715C165.241 81.4801 171.081 91.0742 171.081 101.543V140.457C171.081 150.926 165.241 160.52 155.943 165.329L113.362 187.349C105.295 191.52 95.7053 191.52 87.6382 187.349L45.0572 165.329C35.7585 160.52 29.9189 150.926 29.9189 140.457V101.543C29.9189 91.0742 35.7585 81.4801 45.0572 76.6715L87.6382 54.6513Z" fill="#1E1E1E"/>
<path d="M71.552 138V102.672H80.48V138H71.552ZM92.672 138L82.832 123.12H92.528L102.944 138H92.672ZM78.224 127.248V120.384H86.624C87.68 120.384 88.592 120.176 89.36 119.76C90.128 119.344 90.72 118.752 91.136 117.984C91.584 117.216 91.808 116.32 91.808 115.296C91.808 114.24 91.584 113.328 91.136 112.56C90.72 111.792 90.128 111.2 89.36 110.784C88.592 110.368 87.68 110.16 86.624 110.16H78.224V102.672H86.096C89.136 102.672 91.76 103.136 93.968 104.064C96.176 104.96 97.872 106.304 99.056 108.096C100.24 109.856 100.832 112.048 100.832 114.672V115.44C100.832 118.064 100.224 120.256 99.008 122.016C97.824 123.744 96.128 125.056 93.92 125.952C91.744 126.816 89.136 127.248 86.096 127.248H78.224ZM115.051 128.688V121.008H120.811C121.899 121.008 122.843 120.8 123.643 120.384C124.443 119.936 125.067 119.312 125.515 118.512C125.963 117.712 126.187 116.768 126.187 115.68C126.187 114.56 125.963 113.6 125.515 112.8C125.067 112 124.443 111.392 123.643 110.976C122.843 110.56 121.899 110.352 120.811 110.352H115.051V102.672H120.571C123.579 102.672 126.171 103.184 128.347 104.208C130.555 105.2 132.251 106.64 133.435 108.528C134.619 110.416 135.211 112.672 135.211 115.296V116.064C135.211 118.656 134.619 120.896 133.435 122.784C132.251 124.672 130.555 126.128 128.347 127.152C126.171 128.176 123.579 128.688 120.571 128.688H115.051ZM107.083 138V102.672H116.011V138H107.083Z" fill="white"/>
</svg>
