<svg width="546" height="128" viewBox="0 0 546 128" fill="none" xmlns="http://www.w3.org/2000/svg">
<path d="M75.296 108V18.4H58.912L16.8 81.504V18.4H0.415993V108H16.8L58.912 45.024V108H75.296Z" fill="black"/>
<path d="M114.208 109.536C108.747 109.536 104.267 108.683 100.768 106.976C97.2693 105.184 94.6667 102.837 92.96 99.936C91.2533 97.0347 90.4 93.8347 90.4 90.336C90.4 84.448 92.704 79.6693 97.312 76C101.92 72.3307 108.832 70.496 118.048 70.496H134.176V68.96C134.176 64.608 132.939 61.408 130.464 59.36C127.989 57.312 124.917 56.288 121.248 56.288C117.92 56.288 115.019 57.0987 112.544 58.72C110.069 60.256 108.533 62.56 107.936 65.632H91.936C92.3627 61.024 93.8987 57.0133 96.544 53.6C99.2747 50.1867 102.773 47.584 107.04 45.792C111.307 43.9147 116.085 42.976 121.376 42.976C130.421 42.976 137.547 45.2373 142.752 49.76C147.957 54.2827 150.56 60.6827 150.56 68.96V108H136.608L135.072 97.76C133.195 101.173 130.549 103.989 127.136 106.208C123.808 108.427 119.499 109.536 114.208 109.536ZM117.92 96.736C122.613 96.736 126.24 95.2 128.8 92.128C131.445 89.056 133.109 85.2587 133.792 80.736H119.84C115.488 80.736 112.373 81.5467 110.496 83.168C108.619 84.704 107.68 86.624 107.68 88.928C107.68 91.4027 108.619 93.3227 110.496 94.688C112.373 96.0533 114.848 96.736 117.92 96.736ZM193.608 108C186.952 108 181.619 106.379 177.608 103.136C173.597 99.8933 171.592 94.1333 171.592 85.856V58.208H160.712V44.512H171.592L173.512 27.488H187.976V44.512H205.128V58.208H187.976V85.984C187.976 89.056 188.616 91.1893 189.896 92.384C191.261 93.4933 193.565 94.048 196.808 94.048H204.744V108H193.608ZM228.027 34.656C225.04 34.656 222.566 33.76 220.603 31.968C218.726 30.176 217.787 27.9147 217.787 25.184C217.787 22.4533 218.726 20.2347 220.603 18.528C222.566 16.736 225.04 15.84 228.027 15.84C231.014 15.84 233.446 16.736 235.323 18.528C237.286 20.2347 238.267 22.4533 238.267 25.184C238.267 27.9147 237.286 30.176 235.323 31.968C233.446 33.76 231.014 34.656 228.027 34.656ZM219.835 108V44.512H236.219V108H219.835ZM270.472 108L247.176 44.512H264.328L280.456 92.512L296.584 44.512H313.736L290.312 108H270.472ZM351.793 109.536C345.393 109.536 339.718 108.171 334.769 105.44C329.82 102.709 325.937 98.8693 323.121 93.92C320.305 88.9707 318.897 83.2533 318.897 76.768C318.897 70.1973 320.262 64.352 322.993 59.232C325.809 54.112 329.649 50.144 334.513 47.328C339.462 44.4267 345.265 42.976 351.921 42.976C358.15 42.976 363.654 44.3413 368.433 47.072C373.212 49.8027 376.924 53.5573 379.569 58.336C382.3 63.0293 383.665 68.2773 383.665 74.08C383.665 75.0187 383.622 76 383.537 77.024C383.537 78.048 383.494 79.1147 383.409 80.224H335.153C335.494 85.1733 337.201 89.056 340.273 91.872C343.43 94.688 347.228 96.096 351.665 96.096C354.993 96.096 357.766 95.3707 359.985 93.92C362.289 92.384 363.996 90.4213 365.105 88.032H381.745C380.55 92.0427 378.545 95.712 375.729 99.04C372.998 102.283 369.585 104.843 365.489 106.72C361.478 108.597 356.913 109.536 351.793 109.536ZM351.921 56.288C347.91 56.288 344.369 57.44 341.297 59.744C338.225 61.9627 336.262 65.376 335.409 69.984H367.025C366.769 65.8027 365.233 62.4747 362.417 60C359.601 57.5253 356.102 56.288 351.921 56.288ZM430.889 108V58.208H422.185V44.512H430.889V37.088C430.889 29.408 432.809 23.9467 436.649 20.704C440.574 17.4613 445.865 15.84 452.521 15.84H459.561V29.792H455.081C452.265 29.792 450.26 30.3467 449.065 31.456C447.87 32.5653 447.273 34.4427 447.273 37.088V44.512H488.233V108H471.849V58.208H447.273V108H430.889ZM480.169 35.424C477.182 35.424 474.708 34.528 472.745 32.736C470.868 30.944 469.929 28.6827 469.929 25.952C469.929 23.2213 470.868 21.0027 472.745 19.296C474.708 17.504 477.182 16.608 480.169 16.608C483.156 16.608 485.588 17.504 487.465 19.296C489.428 21.0027 490.409 23.2213 490.409 25.952C490.409 28.6827 489.428 30.944 487.465 32.736C485.588 34.528 483.156 35.424 480.169 35.424ZM533.858 108C527.202 108 521.869 106.379 517.858 103.136C513.847 99.8933 511.842 94.1333 511.842 85.856V58.208H500.962V44.512H511.842L513.762 27.488H528.226V44.512H545.378V58.208H528.226V85.984C528.226 89.056 528.866 91.1893 530.146 92.384C531.511 93.4933 533.815 94.048 537.058 94.048H544.994V108H533.858Z" fill="black"/>
</svg>
