<svg width="630" height="128" viewBox="0 0 630 128" fill="none" xmlns="http://www.w3.org/2000/svg">
<path d="M94.208 113V12.2H75.776L28.4 83.192V12.2H9.96799V113H28.4L75.776 42.152V113H94.208Z" fill="black"/>
<path d="M137.984 114.728C131.84 114.728 126.8 113.768 122.864 111.848C118.928 109.832 116 107.192 114.08 103.928C112.16 100.664 111.2 97.064 111.2 93.128C111.2 86.504 113.792 81.128 118.976 77C124.16 72.872 131.936 70.808 142.304 70.808H160.448V69.08C160.448 64.184 159.056 60.584 156.272 58.28C153.488 55.976 150.032 54.824 145.904 54.824C142.16 54.824 138.896 55.736 136.112 57.56C133.328 59.288 131.6 61.88 130.928 65.336H112.928C113.408 60.152 115.136 55.64 118.112 51.8C121.184 47.96 125.12 45.032 129.92 43.016C134.72 40.904 140.096 39.848 146.048 39.848C156.224 39.848 164.24 42.392 170.096 47.48C175.952 52.568 178.88 59.768 178.88 69.08V113H163.184L161.456 101.48C159.344 105.32 156.368 108.488 152.528 110.984C148.784 113.48 143.936 114.728 137.984 114.728ZM142.16 100.328C147.44 100.328 151.52 98.6 154.4 95.144C157.376 91.688 159.248 87.416 160.016 82.328H144.32C139.424 82.328 135.92 83.24 133.808 85.064C131.696 86.792 130.64 88.952 130.64 91.544C130.64 94.328 131.696 96.488 133.808 98.024C135.92 99.56 138.704 100.328 142.16 100.328ZM227.309 113C219.821 113 213.821 111.176 209.309 107.528C204.797 103.88 202.541 97.4 202.541 88.088V56.984H190.301V41.576H202.541L204.701 22.424H220.973V41.576H240.269V56.984H220.973V88.232C220.973 91.688 221.693 94.088 223.133 95.432C224.669 96.68 227.261 97.304 230.909 97.304H239.837V113H227.309ZM266.03 30.488C262.67 30.488 259.886 29.48 257.678 27.464C255.566 25.448 254.51 22.904 254.51 19.832C254.51 16.76 255.566 14.264 257.678 12.344C259.886 10.328 262.67 9.32 266.03 9.32C269.39 9.32 272.126 10.328 274.238 12.344C276.446 14.264 277.55 16.76 277.55 19.832C277.55 22.904 276.446 25.448 274.238 27.464C272.126 29.48 269.39 30.488 266.03 30.488ZM256.814 113V41.576H275.246V113H256.814ZM313.781 113L287.573 41.576H306.869L325.013 95.576L343.157 41.576H362.453L336.101 113H313.781ZM405.267 114.728C398.067 114.728 391.683 113.192 386.115 110.12C380.547 107.048 376.179 102.728 373.011 97.16C369.843 91.592 368.259 85.16 368.259 77.864C368.259 70.472 369.795 63.896 372.867 58.136C376.035 52.376 380.355 47.912 385.827 44.744C391.395 41.48 397.923 39.848 405.411 39.848C412.419 39.848 418.611 41.384 423.987 44.456C429.363 47.528 433.539 51.752 436.515 57.128C439.587 62.408 441.123 68.312 441.123 74.84C441.123 75.896 441.075 77 440.979 78.152C440.979 79.304 440.931 80.504 440.835 81.752H386.547C386.931 87.32 388.851 91.688 392.307 94.856C395.859 98.024 400.131 99.608 405.123 99.608C408.867 99.608 411.987 98.792 414.483 97.16C417.075 95.432 418.995 93.224 420.243 90.536H438.963C437.619 95.048 435.363 99.176 432.195 102.92C429.123 106.568 425.283 109.448 420.675 111.56C416.163 113.672 411.027 114.728 405.267 114.728ZM405.411 54.824C400.899 54.824 396.915 56.12 393.459 58.712C390.003 61.208 387.795 65.048 386.835 70.232H422.403C422.115 65.528 420.387 61.784 417.219 59C414.051 56.216 410.115 54.824 405.411 54.824ZM494.25 113V56.984H484.458V41.576H494.25V33.224C494.25 24.584 496.41 18.44 500.73 14.792C505.146 11.144 511.098 9.32 518.586 9.32H526.506V25.016H521.466C518.298 25.016 516.042 25.64 514.698 26.888C513.354 28.136 512.682 30.248 512.682 33.224V41.576H558.762V113H540.33V56.984H512.682V113H494.25ZM549.69 31.352C546.33 31.352 543.546 30.344 541.338 28.328C539.226 26.312 538.17 23.768 538.17 20.696C538.17 17.624 539.226 15.128 541.338 13.208C543.546 11.192 546.33 10.184 549.69 10.184C553.05 10.184 555.786 11.192 557.898 13.208C560.106 15.128 561.21 17.624 561.21 20.696C561.21 23.768 560.106 26.312 557.898 28.328C555.786 30.344 553.05 31.352 549.69 31.352ZM610.09 113C602.602 113 596.602 111.176 592.09 107.528C587.578 103.88 585.322 97.4 585.322 88.088V56.984H573.082V41.576H585.322L587.482 22.424H603.754V41.576H623.05V56.984H603.754V88.232C603.754 91.688 604.474 94.088 605.914 95.432C607.45 96.68 610.042 97.304 613.69 97.304H622.618V113H610.09Z" fill="black"/>
</svg>
