<svg width="414" height="128" viewBox="0 0 414 128" fill="none" xmlns="http://www.w3.org/2000/svg">
<path d="M56.472 97V29.8H44.184L12.6 77.128V29.8H0.311995V97H12.6L44.184 49.768V97H56.472Z" fill="white"/>
<path d="M85.656 98.152C81.56 98.152 78.2 97.512 75.576 96.232C72.952 94.888 71 93.128 69.72 90.952C68.44 88.776 67.8 86.376 67.8 83.752C67.8 79.336 69.528 75.752 72.984 73C76.44 70.248 81.624 68.872 88.536 68.872H100.632V67.72C100.632 64.456 99.704 62.056 97.848 60.52C95.992 58.984 93.688 58.216 90.936 58.216C88.44 58.216 86.264 58.824 84.408 60.04C82.552 61.192 81.4 62.92 80.952 65.224H68.952C69.272 61.768 70.424 58.76 72.408 56.2C74.456 53.64 77.08 51.688 80.28 50.344C83.48 48.936 87.064 48.232 91.032 48.232C97.816 48.232 103.16 49.928 107.064 53.32C110.968 56.712 112.92 61.512 112.92 67.72V97H102.456L101.304 89.32C99.896 91.88 97.912 93.992 95.352 95.656C92.856 97.32 89.624 98.152 85.656 98.152ZM88.44 88.552C91.96 88.552 94.68 87.4 96.6 85.096C98.584 82.792 99.832 79.944 100.344 76.552H89.88C86.616 76.552 84.28 77.16 82.872 78.376C81.464 79.528 80.76 80.968 80.76 82.696C80.76 84.552 81.464 85.992 82.872 87.016C84.28 88.04 86.136 88.552 88.44 88.552ZM145.206 97C140.214 97 136.214 95.784 133.206 93.352C130.198 90.92 128.694 86.6 128.694 80.392V59.656H120.534V49.384H128.694L130.134 36.616H140.982V49.384H153.846V59.656H140.982V80.488C140.982 82.792 141.462 84.392 142.422 85.288C143.446 86.12 145.174 86.536 147.606 86.536H153.558V97H145.206ZM171.02 41.992C168.78 41.992 166.924 41.32 165.452 39.976C164.044 38.632 163.34 36.936 163.34 34.888C163.34 32.84 164.044 31.176 165.452 29.896C166.924 28.552 168.78 27.88 171.02 27.88C173.26 27.88 175.084 28.552 176.492 29.896C177.964 31.176 178.7 32.84 178.7 34.888C178.7 36.936 177.964 38.632 176.492 39.976C175.084 41.32 173.26 41.992 171.02 41.992ZM164.876 97V49.384H177.164V97H164.876ZM202.854 97L185.382 49.384H198.246L210.342 85.384L222.438 49.384H235.302L217.734 97H202.854ZM263.845 98.152C259.045 98.152 254.789 97.128 251.077 95.08C247.365 93.032 244.453 90.152 242.341 86.44C240.229 82.728 239.173 78.44 239.173 73.576C239.173 68.648 240.197 64.264 242.245 60.424C244.357 56.584 247.237 53.608 250.885 51.496C254.597 49.32 258.949 48.232 263.941 48.232C268.613 48.232 272.741 49.256 276.325 51.304C279.909 53.352 282.693 56.168 284.677 59.752C286.725 63.272 287.749 67.208 287.749 71.56C287.749 72.264 287.717 73 287.653 73.768C287.653 74.536 287.621 75.336 287.557 76.168H251.365C251.621 79.88 252.901 82.792 255.205 84.904C257.573 87.016 260.421 88.072 263.749 88.072C266.245 88.072 268.325 87.528 269.989 86.44C271.717 85.288 272.997 83.816 273.829 82.024H286.309C285.413 85.032 283.909 87.784 281.797 90.28C279.749 92.712 277.189 94.632 274.117 96.04C271.109 97.448 267.685 98.152 263.845 98.152ZM263.941 58.216C260.933 58.216 258.277 59.08 255.973 60.808C253.669 62.472 252.197 65.032 251.557 68.488H275.269C275.077 65.352 273.925 62.856 271.813 61C269.701 59.144 267.077 58.216 263.941 58.216ZM323.167 97V59.656H316.639V49.384H323.167V43.816C323.167 38.056 324.607 33.96 327.487 31.528C330.431 29.096 334.399 27.88 339.391 27.88H344.671V38.344H341.311C339.199 38.344 337.695 38.76 336.799 39.592C335.903 40.424 335.455 41.832 335.455 43.816V49.384H366.175V97H353.887V59.656H335.455V97H323.167ZM360.127 42.568C357.887 42.568 356.031 41.896 354.559 40.552C353.151 39.208 352.447 37.512 352.447 35.464C352.447 33.416 353.151 31.752 354.559 30.472C356.031 29.128 357.887 28.456 360.127 28.456C362.367 28.456 364.191 29.128 365.599 30.472C367.071 31.752 367.807 33.416 367.807 35.464C367.807 37.512 367.071 39.208 365.599 40.552C364.191 41.896 362.367 42.568 360.127 42.568ZM400.394 97C395.402 97 391.402 95.784 388.394 93.352C385.386 90.92 383.882 86.6 383.882 80.392V59.656H375.722V49.384H383.882L385.322 36.616H396.17V49.384H409.034V59.656H396.17V80.488C396.17 82.792 396.65 84.392 397.609 85.288C398.634 86.12 400.362 86.536 402.794 86.536H408.746V97H400.394Z" fill="white"/>
</svg>
