<svg width="1935" height="1935" viewBox="0 0 1935 1935" fill="none" xmlns="http://www.w3.org/2000/svg">
<g clip-path="url(#clip0_24_6)">
<rect width="1935" height="1935" fill="url(#paint0_radial_24_6)"/>
<path d="M1719 1934.5C1719 2344.02 1387.24 2676 978 2676C568.76 2676 237 2344.02 237 1934.5C237 1524.98 568.76 1193 978 1193C1387.24 1193 1719 1524.98 1719 1934.5Z" stroke="#CECECE" stroke-opacity="0.6" stroke-width="10"/>
<circle cx="966.5" cy="1935.5" r="989.5" stroke="#CECECE" stroke-opacity="0.4" stroke-width="10"/>
<circle cx="966.5" cy="1935.5" r="492.5" stroke="#CECECE" stroke-opacity="0.8" stroke-width="10"/>
<circle cx="967.5" cy="1934.5" r="1238.5" stroke="#CECECE" stroke-opacity="0.3" stroke-width="10"/>
<circle cx="967.5" cy="1949.5" r="243.5" stroke="#CECECE" stroke-width="10"/>
<path d="M597 1026V858H566.149L486.851 976.32V858H456V1026H486.851L566.149 907.92V1026H597Z" fill="#333333"/>
<g filter="url(#filter0_dddd_24_6)">
<path d="M669.74 1029C659.477 1029 651.058 1027.4 644.484 1024.19C637.909 1020.83 633.018 1016.42 629.811 1010.97C626.604 1005.52 625 999.506 625 992.934C625 981.874 629.33 972.898 637.989 966.005C646.648 959.113 659.638 955.667 676.956 955.667H707.264V952.781C707.264 944.607 704.939 938.596 700.289 934.749C695.638 930.902 689.865 928.978 682.97 928.978C676.716 928.978 671.264 930.501 666.613 933.546C661.963 936.432 659.076 940.76 657.954 946.53H627.886C628.688 937.874 631.575 930.341 636.546 923.929C641.677 917.517 648.252 912.628 656.27 909.262C664.288 905.736 673.268 903.973 683.21 903.973C700.208 903.973 713.598 908.22 723.38 916.716C733.162 925.211 738.053 937.233 738.053 952.781V1026.11H711.834L708.948 1006.88C705.42 1013.29 700.449 1018.58 694.035 1022.75C687.781 1026.92 679.682 1029 669.74 1029ZM676.716 1004.96C685.536 1004.96 692.351 1002.07 697.162 996.301C702.133 990.53 705.26 983.397 706.543 974.902H680.324C672.146 974.902 666.292 976.424 662.765 979.47C659.237 982.355 657.473 985.962 657.473 990.29C657.473 994.938 659.237 998.545 662.765 1001.11C666.292 1003.67 670.943 1004.96 676.716 1004.96ZM818.949 1026.11C806.441 1026.11 796.419 1023.07 788.882 1016.98C781.345 1010.89 777.577 1000.07 777.577 984.519V932.585H757.131V906.858H777.577L781.185 874.88H808.366V906.858H840.598V932.585H808.366V984.76C808.366 990.53 809.568 994.537 811.974 996.781C814.54 998.865 818.869 999.907 824.963 999.907H839.876V1026.11H818.949ZM883.629 888.344C878.017 888.344 873.366 886.661 869.678 883.295C866.15 879.929 864.386 875.681 864.386 870.552C864.386 865.423 866.15 861.255 869.678 858.049C873.366 854.683 878.017 853 883.629 853C889.242 853 893.812 854.683 897.34 858.049C901.028 861.255 902.872 865.423 902.872 870.552C902.872 875.681 901.028 879.929 897.34 883.295C893.812 886.661 889.242 888.344 883.629 888.344ZM868.235 1026.11V906.858H899.024V1026.11H868.235ZM963.393 1026.11L919.615 906.858H951.847L982.155 997.022L1012.46 906.858H1044.7L1000.68 1026.11H963.393ZM1116.21 1029C1104.19 1029 1093.52 1026.44 1084.22 1021.31C1074.92 1016.18 1067.62 1008.96 1062.33 999.667C1057.04 990.37 1054.39 979.63 1054.39 967.448C1054.39 955.106 1056.96 944.126 1062.09 934.508C1067.38 924.891 1074.6 917.437 1083.74 912.148C1093.04 906.698 1103.95 903.973 1116.45 903.973C1128.16 903.973 1138.5 906.537 1147.48 911.667C1156.46 916.796 1163.44 923.849 1168.41 932.825C1173.54 941.641 1176.11 951.499 1176.11 962.399C1176.11 964.162 1176.03 966.005 1175.87 967.929C1175.87 969.852 1175.79 971.856 1175.63 973.94H1084.94C1085.58 983.237 1088.79 990.53 1094.56 995.82C1100.5 1001.11 1107.63 1003.75 1115.97 1003.75C1122.23 1003.75 1127.44 1002.39 1131.61 999.667C1135.94 996.781 1139.14 993.095 1141.23 988.607H1172.5C1170.25 996.14 1166.49 1003.03 1161.19 1009.28C1156.06 1015.38 1149.65 1020.18 1141.95 1023.71C1134.41 1027.24 1125.83 1029 1116.21 1029ZM1116.45 928.978C1108.92 928.978 1102.26 931.142 1096.49 935.47C1090.72 939.638 1087.03 946.049 1085.42 954.705H1144.84C1144.36 946.851 1141.47 940.599 1136.18 935.951C1130.89 931.302 1124.31 928.978 1116.45 928.978ZM1264.85 1026.11V932.585H1248.49V906.858H1264.85V892.913C1264.85 878.486 1268.46 868.228 1275.67 862.137C1283.05 856.046 1292.99 853 1305.5 853H1318.73V879.208H1310.31C1305.02 879.208 1301.25 880.25 1299.01 882.333C1296.76 884.417 1295.64 887.944 1295.64 892.913V906.858H1372.61V1026.11H1341.82V932.585H1295.64V1026.11H1264.85ZM1357.46 889.787C1351.85 889.787 1347.19 888.104 1343.51 884.738C1339.98 881.372 1338.21 877.124 1338.21 871.995C1338.21 866.865 1339.98 862.698 1343.51 859.492C1347.19 856.126 1351.85 854.443 1357.46 854.443C1363.07 854.443 1367.64 856.126 1371.17 859.492C1374.86 862.698 1376.7 866.865 1376.7 871.995C1376.7 877.124 1374.86 881.372 1371.17 884.738C1367.64 888.104 1363.07 889.787 1357.46 889.787ZM1458.35 1026.11C1445.84 1026.11 1435.82 1023.07 1428.28 1016.98C1420.75 1010.89 1416.98 1000.07 1416.98 984.519V932.585H1396.53V906.858H1416.98L1420.59 874.88H1447.77V906.858H1480V932.585H1447.77V984.76C1447.77 990.53 1448.97 994.537 1451.37 996.781C1453.94 998.865 1458.27 999.907 1464.36 999.907H1479.28V1026.11H1458.35Z" fill="#333333"/>
</g>
</g>
<defs>
<filter id="filter0_dddd_24_6" x="557" y="840" width="991" height="428" filterUnits="userSpaceOnUse" color-interpolation-filters="sRGB">
<feFlood flood-opacity="0" result="BackgroundImageFix"/>
<feColorMatrix in="SourceAlpha" type="matrix" values="0 0 0 0 0 0 0 0 0 0 0 0 0 0 0 0 0 0 127 0" result="hardAlpha"/>
<feOffset dy="11"/>
<feGaussianBlur stdDeviation="12"/>
<feColorMatrix type="matrix" values="0 0 0 0 0.419608 0 0 0 0 0.419608 0 0 0 0 0.419608 0 0 0 0.1 0"/>
<feBlend mode="normal" in2="BackgroundImageFix" result="effect1_dropShadow_24_6"/>
<feColorMatrix in="SourceAlpha" type="matrix" values="0 0 0 0 0 0 0 0 0 0 0 0 0 0 0 0 0 0 127 0" result="hardAlpha"/>
<feOffset dy="43"/>
<feGaussianBlur stdDeviation="21.5"/>
<feColorMatrix type="matrix" values="0 0 0 0 0.419608 0 0 0 0 0.419608 0 0 0 0 0.419608 0 0 0 0.09 0"/>
<feBlend mode="normal" in2="effect1_dropShadow_24_6" result="effect2_dropShadow_24_6"/>
<feColorMatrix in="SourceAlpha" type="matrix" values="0 0 0 0 0 0 0 0 0 0 0 0 0 0 0 0 0 0 127 0" result="hardAlpha"/>
<feOffset dy="96"/>
<feGaussianBlur stdDeviation="29"/>
<feColorMatrix type="matrix" values="0 0 0 0 0.419608 0 0 0 0 0.419608 0 0 0 0 0.419608 0 0 0 0.05 0"/>
<feBlend mode="normal" in2="effect2_dropShadow_24_6" result="effect3_dropShadow_24_6"/>
<feColorMatrix in="SourceAlpha" type="matrix" values="0 0 0 0 0 0 0 0 0 0 0 0 0 0 0 0 0 0 127 0" result="hardAlpha"/>
<feOffset dy="171"/>
<feGaussianBlur stdDeviation="34"/>
<feColorMatrix type="matrix" values="0 0 0 0 0.419608 0 0 0 0 0.419608 0 0 0 0 0.419608 0 0 0 0.01 0"/>
<feBlend mode="normal" in2="effect3_dropShadow_24_6" result="effect4_dropShadow_24_6"/>
<feBlend mode="normal" in="SourceGraphic" in2="effect4_dropShadow_24_6" result="shape"/>
</filter>
<radialGradient id="paint0_radial_24_6" cx="0" cy="0" r="1" gradientUnits="userSpaceOnUse" gradientTransform="translate(987 1935) rotate(-90.5626) scale(1935.09)">
<stop stop-color="#F3F3F3"/>
<stop offset="1" stop-color="white"/>
</radialGradient>
<clipPath id="clip0_24_6">
<rect width="1935" height="1935" fill="white"/>
</clipPath>
</defs>
</svg>
