<svg width="55" height="25" viewBox="0 0 55 25" fill="none" xmlns="http://www.w3.org/2000/svg">
<path d="M1.68 24.78V21.132H4.728C5.096 21.132 5.408 21.084 5.664 20.988C5.92 20.892 6.128 20.732 6.288 20.508C6.448 20.3 6.568 20.004 6.648 19.62L9.624 6.252H13.752L10.272 20.46C10.016 21.548 9.656 22.404 9.192 23.028C8.744 23.668 8.12 24.116 7.32 24.372C6.536 24.644 5.512 24.78 4.248 24.78H1.68ZM5.88 19.212V15.852H8.664V19.212H5.88ZM3.864 19.212L0 6.252H4.368L7.992 19.212H3.864ZM23.2172 19.5V15.612H22.4972V11.46C22.4972 10.852 22.3532 10.404 22.0652 10.116C21.7932 9.812 21.3372 9.66 20.6972 9.66C20.3932 9.66 19.9452 9.668 19.3532 9.684C18.7612 9.7 18.1372 9.724 17.4812 9.756C16.8252 9.788 16.2252 9.82 15.6812 9.852V6.204C16.0652 6.172 16.5212 6.14 17.0492 6.108C17.5772 6.076 18.1212 6.052 18.6812 6.036C19.2572 6.02 19.7852 6.012 20.2652 6.012C21.6252 6.012 22.7772 6.212 23.7212 6.612C24.6812 7.012 25.4092 7.612 25.9052 8.412C26.4172 9.212 26.6732 10.228 26.6732 11.46V19.5H23.2172ZM19.0172 19.836C18.0892 19.836 17.2652 19.668 16.5452 19.332C15.8252 18.996 15.2572 18.516 14.8412 17.892C14.4412 17.252 14.2412 16.492 14.2412 15.612C14.2412 14.62 14.5052 13.82 15.0332 13.212C15.5612 12.588 16.2892 12.132 17.2172 11.844C18.1452 11.556 19.2092 11.412 20.4092 11.412H22.9772V13.668H20.4092C19.8172 13.668 19.3612 13.82 19.0412 14.124C18.7212 14.412 18.5612 14.804 18.5612 15.3C18.5612 15.78 18.7212 16.172 19.0412 16.476C19.3612 16.764 19.8172 16.908 20.4092 16.908C20.7932 16.908 21.1292 16.844 21.4172 16.716C21.7212 16.572 21.9692 16.332 22.1612 15.996C22.3532 15.66 22.4652 15.196 22.4972 14.604L23.5052 15.564C23.4252 16.476 23.2012 17.252 22.8332 17.892C22.4812 18.516 21.9852 18.996 21.3452 19.332C20.7212 19.668 19.9452 19.836 19.0172 19.836ZM29.8318 19.5V6.156C29.8318 4.604 30.2798 3.452 31.1758 2.7C32.0718 1.932 33.3998 1.548 35.1598 1.548H36.4078V4.764H35.0638C34.6798 4.764 34.3838 4.868 34.1758 5.076C33.9678 5.284 33.8638 5.58 33.8638 5.964V19.5H29.8318ZM28.3918 9.564V6.396H36.4078V9.564H28.3918ZM38.8078 19.5V6.252H43.1758V19.5H38.8078ZM37.3678 9.42V6.252H43.1758V9.42H37.3678ZM40.6078 5.196C39.8078 5.196 39.2158 4.996 38.8318 4.596C38.4638 4.18 38.2798 3.652 38.2798 3.012C38.2798 2.372 38.4638 1.852 38.8318 1.452C39.2158 1.036 39.7998 0.827999 40.5838 0.827999C41.3838 0.827999 41.9678 1.036 42.3358 1.452C42.7038 1.852 42.8878 2.372 42.8878 3.012C42.8878 3.652 42.7038 4.18 42.3358 4.596C41.9678 4.996 41.3918 5.196 40.6078 5.196ZM52.7085 19.692C51.2685 19.692 50.1165 19.516 49.2525 19.164C48.4045 18.812 47.7885 18.228 47.4045 17.412C47.0205 16.596 46.8285 15.492 46.8285 14.1L46.8525 2.796H50.8845L50.8605 14.22C50.8605 14.812 51.0125 15.268 51.3165 15.588C51.6365 15.892 52.0925 16.044 52.6845 16.044H54.5085V19.692H52.7085ZM44.9085 9.42V6.252H54.5085V9.42H44.9085Z" fill="#4F46E5"/>
</svg>
